<svg xmlns="http://www.w3.org/2000/svg" width="51.258" height="51.258" viewBox="0 0 51.258 51.258">
  <path id="Icon_material-move-to-inbox" data-name="Icon material-move-to-inbox" d="M50.063,4.5h-39.9a5.645,5.645,0,0,0-5.638,5.7L4.5,50.063a5.669,5.669,0,0,0,5.667,5.7h39.9a5.712,5.712,0,0,0,5.7-5.7V10.2A5.712,5.712,0,0,0,50.063,4.5Zm0,34.172H38.672a8.543,8.543,0,0,1-17.086,0H10.167V10.2h39.9ZM41.52,24.434h-5.7V15.891H24.434v8.543h-5.7L30.129,35.824Z" transform="translate(-4.5 -4.5)" fill="#6a06af"/>
</svg>
