<svg xmlns="http://www.w3.org/2000/svg" width="58.993" height="39.329" viewBox="0 0 58.993 39.329">
  <path id="Icon_awesome-eye" data-name="Icon awesome-eye" d="M58.637,22.669A32.85,32.85,0,0,0,29.5,4.5,32.855,32.855,0,0,0,.356,22.67a3.313,3.313,0,0,0,0,2.99A32.85,32.85,0,0,0,29.5,43.829a32.855,32.855,0,0,0,29.14-18.17A3.313,3.313,0,0,0,58.637,22.669ZM29.5,38.913A14.748,14.748,0,1,1,44.245,24.164,14.748,14.748,0,0,1,29.5,38.913Zm0-24.581a9.762,9.762,0,0,0-2.592.388,4.9,4.9,0,0,1-6.852,6.852,9.81,9.81,0,1,0,9.444-7.24Z" transform="translate(0 -4.5)" fill="#6a06af"/>
</svg>
