<svg xmlns="http://www.w3.org/2000/svg" width="55.922" height="49.709" viewBox="0 0 55.922 49.709">
  <path id="Icon_awesome-trophy" data-name="Icon awesome-trophy" d="M53.592,6.214H43.5V2.33A2.325,2.325,0,0,0,41.165,0H14.757a2.325,2.325,0,0,0-2.33,2.33V6.214H2.33A2.325,2.325,0,0,0,0,8.544v5.437c0,3.466,2.184,7.029,6.01,9.777a22.745,22.745,0,0,0,10.68,4.049A21.476,21.476,0,0,0,23.3,34.952v6.99h-4.66c-3.427,0-6.214,2.01-6.214,5.437v1.165a1.168,1.168,0,0,0,1.165,1.165H42.33A1.168,1.168,0,0,0,43.5,48.544V47.379c0-3.427-2.786-5.437-6.214-5.437h-4.66v-6.99a21.476,21.476,0,0,0,6.612-7.146,22.667,22.667,0,0,0,10.68-4.049c3.816-2.748,6.01-6.311,6.01-9.777V8.544A2.325,2.325,0,0,0,53.592,6.214ZM9.641,18.718c-2.369-1.709-3.427-3.612-3.427-4.738V12.427h6.233A34.87,34.87,0,0,0,13.689,20.8a15.646,15.646,0,0,1-4.049-2.078Zm40.068-4.738c0,1.563-1.718,3.5-3.427,4.738A15.707,15.707,0,0,1,42.223,20.8a34.871,34.871,0,0,0,1.243-8.369h6.243Z" fill="#6a06af"/>
</svg>
